<?xml version="1.0" standalone="no"?>
<!DOCTYPE svg PUBLIC "-//W3C//DTD SVG 20010904//EN"
 "http://www.w3.org/TR/2001/REC-SVG-20010904/DTD/svg10.dtd">
<svg version="1.0" xmlns="http://www.w3.org/2000/svg"
 width="1024.000000pt" height="1024.000000pt" viewBox="0 0 1024.000000 1024.000000"
 preserveAspectRatio="xMidYMid meet">
<metadata>
Created by potrace 1.15, written by Peter Selinger 2001-2017
</metadata>
<g transform="translate(0.000000,1024.000000) scale(0.100000,-0.100000)"
fill="#000000" stroke="none">
<path d="M4770 10234 c-19 -2 -91 -9 -160 -15 -1316 -116 -2594 -796 -3445
-1834 -561 -685 -930 -1478 -1089 -2346 -59 -317 -70 -471 -71 -909 0 -441 7
-532 66 -880 262 -1559 1259 -2924 2679 -3668 523 -274 1128 -462 1725 -537
430 -53 957 -48 1388 15 1452 213 2746 1044 3551 2282 432 665 699 1419 793
2239 22 193 26 868 5 1044 -57 498 -147 887 -297 1289 -381 1027 -1074 1897
-1990 2499 -670 440 -1417 707 -2247 803 -125 14 -816 28 -908 18z m2320
-3209 c803 -2634 1301 -4266 1307 -4281 4 -12 -23 -14 -165 -14 l-170 0 -6 34
c-13 68 -108 415 -162 589 -131 424 -305 838 -455 1080 -232 373 -533 577
-879 594 -189 9 -336 -30 -492 -133 -159 -104 -417 -398 -552 -627 -72 -123
-235 -444 -326 -644 -41 -90 -77 -160 -81 -155 -3 4 -37 75 -74 157 -93 205
-251 518 -325 643 -130 219 -340 468 -492 582 -152 115 -289 168 -454 177
-213 12 -397 -41 -587 -168 -95 -64 -272 -249 -349 -364 -218 -327 -448 -914
-616 -1570 l-49 -190 -167 -3 c-156 -2 -167 -1 -162 15 12 39 706 2318 976
3203 158 520 415 1364 570 1875 156 512 286 933 289 937 4 4 316 -1022 695
-2280 379 -1258 700 -2322 713 -2365 14 -44 29 -77 37 -77 12 0 133 398 1288
4233 111 370 155 501 160 485 4 -13 242 -792 528 -1733z"/>
</g>
</svg>
